PathFileType	4	(X/Y/Z)	 s10c0301.trc
DataRate	CameraRate	NumFrames	NumMarkers	Units	OrigDataRate	OrigDataStartFrame	OrigNumFrames
200	200	7	50	mm	200	1001	2000
Frame#	Time	racr			lacr			c7			jug			rlel			rdr			llel			ldr			s2			lic			ric			lasi			rasi			rpsi			lpsi			rgt			lgt			rth1			rth2			rth3			rth4			rlfc			rmfc			rsh1			rsh2			rsh3			rsh4			rlmal			rmmal			rcal			rtoe			rmt5			lth1			lth2			lth4			lth3			llfc			lmfc			llmal			lmmal			lcal			lmt5			lsh1			lsh2			lsh3			lsh4			ltoe			SBIKE			LBIKE			RBIKE			
		X1	Y1	Z1	X2	Y2	Z2	X3	Y3	Z3	X4	Y4	Z4	X5	Y5	Z5	X6	Y6	Z6	X7	Y7	Z7	X8	Y8	Z8	X9	Y9	Z9	X10	Y10	Z10	X11	Y11	Z11	X12	Y12	Z12	X13	Y13	Z13	X14	Y14	Z14	X15	Y15	Z15	X16	Y16	Z16	X17	Y17	Z17	X18	Y18	Z18	X19	Y19	Z19	X20	Y20	Z20	X21	Y21	Z21	X22	Y22	Z22	X23	Y23	Z23	X24	Y24	Z24	X25	Y25	Z25	X26	Y26	Z26	X27	Y27	Z27	X28	Y28	Z28	X29	Y29	Z29	X30	Y30	Z30	X31	Y31	Z31	X32	Y32	Z32	X33	Y33	Z33	X34	Y34	Z34	X35	Y35	Z35	X36	Y36	Z36	X37	Y37	Z37	X38	Y38	Z38	X39	Y39	Z39	X40	Y40	Z40	X41	Y41	Z41	X42	Y42	Z42	X43	Y43	Z43	X44	Y44	Z44	X45	Y45	Z45	X46	Y46	Z46	X47	Y47	Z47	X48	Y48	Z48	X49	Y49	Z49	X50	Y50	Z50	
1001	5.0050	706.592569	1333.720020	-14.684204	722.717807	1295.227608	-324.419647	692.453300	1345.789083	-182.378360	687.546778	1200.099182	-160.627823	613.353873	1079.555767	75.800270	649.545123	878.287562	-15.988100	588.241985	1071.123562	-454.536687	670.825362	884.450424	-372.176443	160.585547	1146.217871	-224.225331	339.468667	1129.479957	-363.292493	325.115205	1164.389087	-59.931005	345.337423	1048.330271	-330.716197	327.662021	1073.246504	-87.913142	206.846094	1200.053618	-174.483697	218.520121	1196.270725	-287.079532	235.911068	1059.565107	-25.689943	202.423237	1002.074318	-400.392398	321.711603	944.066269	-2.290626	395.496324	896.198178	-16.668587	434.691328	819.851574	-17.827108	419.567659	921.010948	-32.456340	493.713471	734.524210	-35.653513	471.509066	723.511113	-152.037857	382.683185	697.315768	-4.875578	312.856802	644.751311	-22.941373	227.789940	631.968710	-25.654813	326.405322	623.141459	-51.257701	129.333127	597.800880	-42.200431	155.891766	592.134132	-123.712504	87.771459	633.729013	-90.774693	183.567241	409.144846	-95.434083	122.321659	468.664362	-33.791061	230.452159	879.272521	-412.290698	272.444864	805.539122	-395.139425	306.993628	815.874804	-387.315313	269.688301	717.867436	-379.124138	304.085602	617.352715	-355.093262	284.196921	613.950090	-244.164821	162.052217	268.640460	-368.357509	175.874412	267.448550	-285.132364	105.609263	252.038287	-330.837295	260.152757	159.075055	-386.198315	231.937306	514.572026	-396.596140	234.269200	428.635966	-382.183139	191.535203	350.172632	-379.783770	262.546647	424.810569	-356.956112	344.201961	165.032555	-324.763827	-204.554683	833.934139	-224.824142	-78.264648	81.697125	-423.657523	-102.711798	80.518659	-24.417379	
1002	5.0100	705.525774	1334.394927	-11.692382	722.361028	1295.231650	-322.346150	691.743353	1345.640386	-180.262038	687.090711	1199.889524	-157.727003	612.256527	1079.065220	76.627840	649.344636	878.312024	-15.721617	588.628550	1071.165340	-453.515498	670.870399	884.329913	-372.456959	160.826951	1143.210628	-226.609277	341.744003	1126.623361	-363.673197	323.620813	1163.020402	-60.500905	346.826615	1044.955575	-330.417871	326.904189	1072.220710	-87.707571	205.815089	1198.119994	-176.092103	219.815071	1193.229563	-289.223382	234.352919	1058.104930	-25.508593	203.483233	999.700162	-402.803281	322.685416	946.665652	-2.998397	397.886094	900.982695	-16.825145	439.466856	825.967046	-17.070689	421.074048	926.234818	-33.170281	499.987838	741.137226	-34.576253	479.004356	729.417641	-151.569032	389.000141	703.828037	-4.389036	319.340192	651.177960	-22.194887	234.241184	638.226138	-25.135656	333.013986	629.417370	-50.306617	135.797393	603.377758	-42.247336	162.615645	598.268922	-123.702708	92.648176	637.971732	-91.018421	194.689836	416.076606	-95.056716	132.348303	474.141851	-33.368737	228.798843	878.464628	-413.812386	268.270398	803.583550	-396.537282	303.440389	812.560236	-388.328650	262.986936	715.923920	-380.891825	295.525388	614.256789	-356.474165	274.763708	611.423443	-245.423803	154.580439	265.907239	-369.429590	168.463566	264.843965	-286.379853	97.935279	250.322043	-331.409439	250.697464	154.205287	-386.667983	224.125750	511.699537	-397.891335	226.322644	425.751417	-383.230890	183.634960	347.298918	-381.023331	254.483034	421.978578	-357.850216	334.836152	158.458156	-324.968811	-204.575150	833.937544	-224.810736	-78.272888	81.695377	-423.645330	-102.721047	80.524402	-24.428662	
1003	5.0150	704.628284	1334.745443	-8.951268	721.982395	1295.226624	-320.433766	691.016729	1345.360406	-178.100135	686.880260	1199.510172	-154.979979	611.041331	1078.524869	77.597691	649.066676	878.353512	-15.479541	589.166495	1071.106090	-452.586548	670.764275	883.785210	-371.948600	161.104185	1140.426255	-228.924193	343.889672	1123.788174	-363.518618	322.104665	1161.740138	-60.977247	348.453118	1042.328947	-330.086550	326.103485	1071.053838	-87.343396	204.298041	1196.433249	-177.395478	221.079821	1190.307599	-291.014760	232.387866	1056.732879	-25.455408	205.194973	998.473748	-405.465692	323.284708	949.424220	-3.511761	400.060933	905.820403	-16.710361	443.847378	832.159712	-16.123227	422.367884	931.721850	-33.485765	506.311334	747.517944	-33.650528	486.292115	735.641335	-151.028223	395.144447	710.584659	-3.557911	325.730307	657.489674	-21.482060	240.781310	644.191485	-24.725163	339.673319	635.642138	-49.283834	142.452696	608.174696	-42.396553	169.387592	604.099206	-124.421311	98.225177	641.399910	-91.268369	205.976246	422.264546	-94.655495	142.226905	478.865916	-33.044764	227.305952	877.985736	-415.284065	264.546176	801.940481	-398.095700	299.941590	809.925437	-389.563088	256.725639	714.452742	-382.952667	287.131295	611.880733	-358.145723	265.785717	609.148536	-247.144513	146.824560	263.671533	-370.666251	160.918242	262.875539	-287.815622	90.249511	249.405101	-332.425345	241.020592	150.144902	-387.166405	216.756201	509.223412	-399.509399	218.733197	423.520887	-384.591613	176.036167	344.931859	-382.650391	246.649190	419.660018	-358.836069	325.179012	152.811203	-325.498201	-204.588434	833.943376	-224.836901	-78.267384	81.696989	-423.648834	-102.720401	80.518933	-24.431222	
1004	5.0200	703.925427	1334.699628	-6.558969	721.458489	1295.283911	-318.628841	690.342696	1344.950275	-175.881025	686.623546	1198.965600	-152.411629	609.730133	1077.785044	78.668767	648.770038	878.320846	-15.208192	589.892488	1070.968570	-451.675428	670.898566	883.429545	-371.330027	161.441905	1137.923082	-231.228991	346.236687	1121.261852	-363.074966	320.660835	1160.429550	-61.481663	350.186972	1040.461387	-329.415928	325.675560	1070.219160	-86.224246	202.982600	1194.601526	-179.314729	222.047603	1187.007674	-292.467687	230.092761	1055.615836	-25.830299	207.777877	997.953300	-407.783406	323.622103	952.119831	-3.970251	401.807133	910.700584	-16.454176	447.772317	838.388671	-14.753872	423.583170	937.312031	-32.633408	511.903989	754.904805	-31.995358	493.344835	741.883448	-150.389205	401.229723	717.077491	-2.810844	332.243692	663.788466	-20.705519	247.367636	650.025407	-24.315555	346.389625	641.613257	-48.152762	149.458626	612.017893	-42.520783	176.116925	609.034085	-125.915094	104.073662	644.177420	-91.607598	217.949884	427.520430	-94.190362	152.237431	482.826697	-32.641578	226.095368	877.836800	-416.764951	262.658412	801.433538	-400.814391	296.669364	807.707296	-391.001636	250.876373	713.359653	-385.376734	279.041748	610.190096	-360.176029	258.218425	607.388129	-248.487625	138.877108	262.101790	-371.989944	153.118549	261.592977	-289.328550	82.391043	249.253588	-333.639504	231.174516	146.665541	-387.704597	209.640697	507.502214	-401.343924	211.366186	421.699979	-386.111391	168.711415	343.187665	-384.558624	238.916904	417.942806	-359.913563	315.326168	147.640926	-325.840995	-204.596433	833.910249	-224.844066	-78.266795	81.690784	-423.654552	-102.719862	80.513341	-24.425497	
1005	5.0250	703.481153	1334.257612	-4.439859	720.850695	1295.402001	-316.952641	689.803029	1344.447213	-173.777215	686.233643	1198.293689	-150.200180	608.351515	1077.045812	79.931987	648.517029	878.243813	-14.931322	590.739119	1070.806508	-450.878236	671.087026	883.240218	-370.952859	161.670822	1136.005151	-233.718798	348.648462	1119.056732	-362.225459	319.267601	1159.185406	-61.936394	351.993784	1038.838408	-328.389508	324.578142	1069.161148	-85.800305	202.643585	1192.783459	-181.705303	223.178459	1185.855513	-293.852277	227.356824	1054.788257	-26.412930	211.020521	997.618859	-409.399107	323.557414	954.461239	-4.126075	402.889714	915.196516	-16.345184	451.147975	844.406635	-13.145039	424.069568	942.356739	-32.568834	517.773489	761.943042	-30.881880	500.004662	748.060614	-149.710245	407.351203	723.843559	-1.999837	338.780193	669.811281	-19.918346	253.978693	655.508710	-24.014823	353.394211	647.363130	-46.811842	156.981477	615.232964	-42.389637	184.095462	612.642674	-124.054499	111.043578	645.908316	-90.816102	228.922511	432.219688	-93.755111	162.551568	486.035780	-32.322748	225.143598	878.075721	-418.186222	259.585260	800.655989	-402.701665	293.737084	805.931854	-392.541610	245.604520	712.772296	-388.134657	271.117484	608.944042	-362.353899	248.108477	605.481457	-251.375833	130.981210	260.986511	-373.724646	145.380419	261.103413	-291.254932	74.507324	249.708387	-335.105797	221.184956	143.737526	-388.242145	202.809128	506.344758	-403.203917	204.225848	420.646782	-387.758581	161.553264	342.130173	-386.743117	231.422631	416.809030	-361.247347	305.179188	143.099515	-326.098959	-204.613607	833.951965	-224.878399	-78.281922	81.680473	-423.642863	-102.724295	80.502260	-24.438924	
1006	5.0300	703.312650	1333.516437	-2.566630	720.129398	1295.545123	-315.430339	689.346196	1343.881177	-171.686401	685.792798	1197.527011	-148.198657	607.001848	1076.319913	81.387335	648.460714	877.734500	-13.892547	591.757734	1070.563788	-450.061685	671.057839	882.538716	-369.598712	161.682404	1134.839492	-236.232375	351.244971	1117.368679	-361.271592	318.002353	1157.887510	-62.393843	353.769570	1037.634581	-327.115287	323.026642	1068.112359	-85.403621	202.025277	1190.765121	-183.583266	225.703033	1185.774153	-295.394519	224.224044	1054.279092	-27.458491	214.164941	997.325270	-410.425808	323.137341	956.574261	-4.552706	403.571533	919.473084	-16.000773	453.869658	850.252297	-11.427518	424.192024	947.377332	-31.384420	523.693474	767.968436	-29.714553	506.339477	754.280108	-149.062220	413.330057	730.337419	-1.205649	345.522732	675.758553	-18.729630	260.700158	660.687004	-23.809560	360.208078	652.679717	-45.410783	164.888650	617.327521	-42.393201	192.687743	614.978205	-122.954988	118.026694	647.063358	-90.635021	240.369593	435.970147	-93.304899	172.937859	488.391915	-31.922494	224.491771	878.748291	-419.539524	256.964936	800.314686	-404.771549	291.205146	804.688229	-394.275450	240.864685	712.619885	-390.939472	263.468719	608.322933	-364.838004	239.956654	603.982749	-253.551409	123.079837	260.664572	-375.643733	137.235871	261.163476	-293.298648	66.584873	250.787252	-337.146141	211.307214	141.474209	-388.814622	196.254069	505.823707	-404.542357	197.259940	420.150300	-389.499864	154.520639	341.796264	-389.117790	224.164259	416.321697	-362.551770	294.879600	139.384626	-325.980448	-204.619199	833.909501	-224.870910	-78.281610	81.687172	-423.645689	-102.708140	80.507334	-24.437449	
1007	5.0350	703.390165	1332.431654	-0.884819	719.233388	1295.848227	-314.000764	689.038806	1343.322109	-169.352146	684.988966	1196.733059	-146.232073	605.654446	1075.437686	82.982068	648.193570	877.775664	-13.557223	592.904634	1070.437890	-449.356545	671.395745	882.628475	-369.136133	162.323484	1133.558522	-238.654221	353.651075	1116.037902	-360.075297	316.760082	1156.700395	-62.814963	355.290798	1036.462537	-325.643636	321.461010	1067.315190	-84.920929	201.768264	1189.500410	-185.554694	227.169065	1184.671528	-296.207346	220.990205	1053.926080	-28.842961	217.297846	997.706370	-411.606093	322.518073	958.489995	-4.927270	403.866023	923.520567	-15.067189	455.788956	855.756638	-9.729687	424.242484	951.754422	-30.640367	528.896199	775.625835	-28.048773	512.463090	760.357753	-148.278197	419.293536	736.512359	-0.356852	352.117832	681.233447	-17.897064	267.480012	665.405310	-23.719410	367.170220	657.571322	-44.191108	173.160116	618.771170	-42.231735	202.390063	617.197571	-123.320844	125.363273	647.422196	-90.463916	251.869053	438.820029	-92.644122	183.442719	489.920893	-31.370207	224.166018	879.803877	-420.864796	253.599277	799.773046	-406.020374	290.142060	805.071801	-396.825013	236.818599	713.008453	-393.642429	256.272916	607.987975	-367.452312	232.210177	602.652568	-255.775152	115.377492	261.038238	-377.916676	128.947988	261.586037	-295.638022	58.499337	252.258752	-339.589538	201.483132	140.015049	-389.488910	189.905429	506.007321	-406.380112	190.499660	420.414314	-391.382734	147.507862	342.156142	-391.497395	217.095776	416.520366	-364.117800	284.419083	136.383703	-326.022063	-204.640842	833.894118	-224.909096	-78.283941	81.676290	-423.643509	-102.710743	80.509797	-24.443783	
